# xmcd CD database file
#
# Track frame offsets:
#	150
#	17537
#	33744
#	50058
#	72497
#	89539
#	108794
#	125526
#	143987
#	163672
#	188707
#	207632
#	226440
#	245061
#	260834
#	280439
#
# Disc length: 3986 seconds
#
# Revision: 0
# Processed by: cddbd v1.5.2PL0 Copyright (c) Steve Scherf et al.
# Submitted via: CDex 1.51
#
DISCID=fc0f9010
DTITLE=Tom Stuip and Delirium Tremolo - Oriental Strut
DYEAR=2010
DGENRE=Jazz
TTITLE0=Annie Laurie
TTITLE1=Blue River
TTITLE2=Broadway Rose - Dolly (I LoveYou)
TTITLE3=Banjonera
TTITLE4=Creole Belles
TTITLE5=Cryin' For the Carolines
TTITLE6=Down In Jungle Town
TTITLE7=A Fool Such As I
TTITLE8=Lena Frome Palesteena
TTITLE9=Lullaby Of The Leaves
TTITLE10=Persian Rug
TTITLE11=Oriental Strut
TTITLE12=Pirouette
TTITLE13=Power Rag
TTITLE14=Washington Square
TTITLE15=Where The Cot-Cot-Cotton Grows
EXTD=YEAR: 2010
EXTT0=
EXTT1=
EXTT2=
EXTT3=
EXTT4=
EXTT5=
EXTT6=
EXTT7=
EXTT8=
EXTT9=
EXTT10=
EXTT11=
EXTT12=
EXTT13=
EXTT14=
EXTT15=
PLAYORDER=
